<svg width="139" height="32" viewBox="0 0 139 32" fill="none" xmlns="http://www.w3.org/2000/svg">
<path d="M10.9962 1.61067C10.5122 2.97044 9.99216 5.32604 9.93216 9.23737C9.92816 9.54932 10.2842 9.75328 10.5522 9.58531C12.7361 8.22954 20.0961 3.8183 24.272 3.25039C24.536 3.2144 24.596 2.88246 24.364 2.75448C22.888 1.95061 19.1841 0.282899 13.4761 0.00294711C12.3681 -0.049044 11.3561 0.590847 10.9962 1.60667V1.61067Z" fill="#2377F4"/>
<path d="M0.659995 13.0407C1.63199 14.1245 3.47597 15.7363 6.93594 17.7359C7.21194 17.8959 7.57193 17.6959 7.55593 17.388C7.43594 14.8724 7.16794 6.47384 8.74392 2.67448C8.84392 2.43852 8.57993 2.21856 8.35193 2.34654C6.89994 3.1864 3.55597 5.47401 0.463998 10.1492C-0.135997 11.0531 -0.0679981 12.2289 0.659995 13.0407Z" fill="#2377F4"/>
<path d="M5.71209 27.4423C7.16408 27.1623 9.52006 26.4144 13.024 24.4988C13.304 24.3468 13.308 23.9429 13.024 23.8029C10.72 22.6511 3.09212 18.6918 0.484139 15.4723C0.320141 15.2683 -0.00785622 15.3883 0.000143711 15.6443C0.0281435 17.292 0.40814 21.2473 3.03612 26.1825C3.54411 27.1343 4.6281 27.6542 5.71209 27.4463V27.4423Z" fill="#2377F4"/>
<path d="M21.0601 30.3818C21.5361 29.022 22.0481 26.6624 22.0881 22.7471C22.0881 22.4351 21.7361 22.2312 21.4641 22.4031C19.2881 23.7669 11.9482 28.2141 7.77222 28.798C7.50822 28.834 7.45222 29.17 7.68422 29.294C9.1682 30.0938 12.8802 31.7455 18.5841 31.9975C19.6921 32.0455 20.7001 31.4016 21.0561 30.3818H21.0601Z" fill="#2377F4"/>
<path d="M31.3438 18.9077C30.3678 17.8279 28.5158 16.2241 25.0479 14.2365C24.7719 14.0765 24.4119 14.2765 24.4279 14.5884C24.5599 17.1 24.8679 25.4985 23.3079 29.3059C23.2119 29.5459 23.4759 29.7618 23.6999 29.6298C25.1479 28.782 28.4798 26.4824 31.5558 21.7952C32.1518 20.8873 32.0758 19.7155 31.3478 18.9037L31.3438 18.9077Z" fill="#2377F4"/>
<path d="M26.0078 4.34217C24.5638 4.65412 22.2239 5.45398 18.7639 7.44964C18.4879 7.60961 18.4959 8.00954 18.7839 8.14552C21.1159 9.24533 28.8358 13.0327 31.5158 16.1961C31.6838 16.3921 32.0078 16.2761 31.9998 16.0202C31.9358 14.3765 31.4638 10.4291 28.7158 5.54596C28.1838 4.60612 27.0878 4.11021 26.0118 4.34217H26.0078Z" fill="#2377F4"/>
<path d="M16 21.3992C13.0241 21.3992 10.6001 18.9756 10.6001 16.0002C10.6001 13.0247 13.0241 10.6011 16 10.6011C18.976 10.6011 21.4 13.0247 21.4 16.0002C21.4 18.9756 18.976 21.3992 16 21.3992Z" fill="#808080"/>
<path d="M54.6406 16.709H50.5879V15.6836H54.6406C55.487 15.6836 56.1738 15.5469 56.7012 15.2734C57.235 14.9935 57.6224 14.6159 57.8633 14.1406C58.1107 13.6654 58.2344 13.1315 58.2344 12.5391C58.2344 11.9596 58.1107 11.4258 57.8633 10.9375C57.6224 10.4492 57.235 10.0586 56.7012 9.76562C56.1738 9.46615 55.487 9.31641 54.6406 9.31641H51.0078V22.5H49.8066V8.28125H54.6406C55.6823 8.28125 56.5579 8.46029 57.2676 8.81836C57.9837 9.17643 58.5241 9.67448 58.8887 10.3125C59.2533 10.9505 59.4355 11.6862 59.4355 12.5195C59.4355 13.3919 59.2533 14.1439 58.8887 14.7754C58.5241 15.4004 57.987 15.8789 57.2773 16.2109C56.5677 16.543 55.6888 16.709 54.6406 16.709ZM64.1562 11.9336V22.5H62.9941V11.9336H64.1562ZM62.7891 8.87695C62.7891 8.6556 62.8574 8.47005 62.9941 8.32031C63.1374 8.16406 63.3327 8.08594 63.5801 8.08594C63.8275 8.08594 64.0228 8.16406 64.166 8.32031C64.3158 8.47005 64.3906 8.6556 64.3906 8.87695C64.3906 9.0918 64.3158 9.27734 64.166 9.43359C64.0228 9.58333 63.8275 9.6582 63.5801 9.6582C63.3327 9.6582 63.1374 9.58333 62.9941 9.43359C62.8574 9.27734 62.7891 9.0918 62.7891 8.87695ZM72.2461 21.6895C72.7409 21.6895 73.2031 21.5983 73.6328 21.416C74.069 21.2272 74.4271 20.9505 74.707 20.5859C74.9935 20.2148 75.1562 19.7624 75.1953 19.2285H76.3086C76.276 19.8991 76.071 20.498 75.6934 21.0254C75.3223 21.5462 74.834 21.9564 74.2285 22.2559C73.6296 22.5488 72.9688 22.6953 72.2461 22.6953C71.5104 22.6953 70.8594 22.5618 70.293 22.2949C69.7331 22.028 69.2643 21.6569 68.8867 21.1816C68.5091 20.6999 68.2227 20.14 68.0273 19.502C67.8385 18.8574 67.7441 18.1641 67.7441 17.4219V17.0117C67.7441 16.2695 67.8385 15.5794 68.0273 14.9414C68.2227 14.2969 68.5091 13.737 68.8867 13.2617C69.2643 12.7799 69.7331 12.4056 70.293 12.1387C70.8529 11.8717 71.5007 11.7383 72.2363 11.7383C72.9915 11.7383 73.6686 11.8913 74.2676 12.1973C74.873 12.5033 75.3548 12.9362 75.7129 13.4961C76.0775 14.056 76.276 14.7201 76.3086 15.4883H75.1953C75.1628 14.9219 75.013 14.4336 74.7461 14.0234C74.4792 13.6133 74.1276 13.2975 73.6914 13.0762C73.2552 12.8548 72.7702 12.7441 72.2363 12.7441C71.6374 12.7441 71.1263 12.8613 70.7031 13.0957C70.2799 13.3236 69.9349 13.6393 69.668 14.043C69.4076 14.4401 69.2155 14.8958 69.0918 15.4102C68.9681 15.918 68.9062 16.4518 68.9062 17.0117V17.4219C68.9062 17.9883 68.9648 18.5286 69.082 19.043C69.2057 19.5508 69.3978 20.0033 69.6582 20.4004C69.9251 20.7975 70.2702 21.1133 70.6934 21.3477C71.123 21.5755 71.6406 21.6895 72.2461 21.6895ZM81.459 14.8926L84.1934 13.125C84.597 12.8581 84.8672 12.6009 85.0039 12.3535C85.1406 12.1061 85.209 11.8294 85.209 11.5234C85.209 11.2174 85.0951 10.9342 84.8672 10.6738C84.6393 10.4069 84.3203 10.2734 83.9102 10.2734C83.6172 10.2734 83.3698 10.3418 83.168 10.4785C82.9661 10.6087 82.8132 10.7845 82.709 11.0059C82.6113 11.2272 82.5625 11.4746 82.5625 11.748C82.5625 12.041 82.6406 12.3405 82.7969 12.6465C82.9531 12.946 83.1647 13.265 83.4316 13.6035C83.6986 13.9355 83.9948 14.2969 84.3203 14.6875L91.0293 22.5H87.8359L82.3672 16.1719C81.9049 15.599 81.5013 15.0749 81.1562 14.5996C80.8112 14.1178 80.541 13.6491 80.3457 13.1934C80.1504 12.7376 80.0527 12.2689 80.0527 11.7871C80.0527 11.0449 80.2122 10.3971 80.5312 9.84375C80.8503 9.28385 81.2995 8.85091 81.8789 8.54492C82.4583 8.23242 83.1387 8.07617 83.9199 8.07617C84.6556 8.07617 85.2936 8.22917 85.834 8.53516C86.3743 8.83464 86.791 9.23177 87.084 9.72656C87.3835 10.2214 87.5332 10.765 87.5332 11.3574C87.5332 11.8001 87.4518 12.2103 87.2891 12.5879C87.1263 12.959 86.9017 13.304 86.6152 13.623C86.3288 13.9355 86 14.2253 85.6289 14.4922L82.5137 16.709C82.2728 16.9303 82.0905 17.1484 81.9668 17.3633C81.8431 17.5781 81.7585 17.7832 81.7129 17.9785C81.6673 18.1673 81.6445 18.3496 81.6445 18.5254C81.6445 18.903 81.7259 19.2415 81.8887 19.541C82.0514 19.8405 82.2793 20.0749 82.5723 20.2441C82.8652 20.4134 83.207 20.498 83.5977 20.498C84.1315 20.498 84.6491 20.3809 85.1504 20.1465C85.6517 19.9121 86.1009 19.5768 86.498 19.1406C86.8952 18.6979 87.2109 18.1738 87.4453 17.5684C87.6797 16.9629 87.7969 16.2956 87.7969 15.5664H90.1797C90.1797 16.2956 90.1081 16.9889 89.9648 17.6465C89.8216 18.2975 89.5905 18.903 89.2715 19.4629C88.9525 20.0163 88.5293 20.5078 88.002 20.9375C87.9629 20.9701 87.9076 21.0189 87.8359 21.084C87.7708 21.1426 87.7155 21.1882 87.6699 21.2207C87.0449 21.722 86.3939 22.0964 85.7168 22.3438C85.0397 22.5846 84.2845 22.7051 83.4512 22.7051C82.5007 22.7051 81.6771 22.5326 80.9805 22.1875C80.2904 21.8424 79.7565 21.3672 79.3789 20.7617C79.0078 20.1562 78.8223 19.4629 78.8223 18.6816C78.8223 18.1087 78.9329 17.6107 79.1543 17.1875C79.3822 16.7578 79.6947 16.3607 80.0918 15.9961C80.4889 15.6315 80.9447 15.2637 81.459 14.8926ZM102.957 18.0664H104.158C104.061 19.0234 103.797 19.8503 103.367 20.5469C102.938 21.237 102.352 21.7676 101.609 22.1387C100.867 22.5098 99.972 22.6953 98.9238 22.6953C98.1165 22.6953 97.3841 22.5423 96.7266 22.2363C96.0755 21.9303 95.5156 21.4974 95.0469 20.9375C94.5781 20.3711 94.2168 19.694 93.9629 18.9062C93.709 18.1185 93.582 17.2428 93.582 16.2793V14.502C93.582 13.5384 93.709 12.666 93.9629 11.8848C94.2168 11.097 94.5814 10.4199 95.0566 9.85352C95.5319 9.28711 96.1016 8.85091 96.7656 8.54492C97.4297 8.23893 98.1784 8.08594 99.0117 8.08594C100.021 8.08594 100.893 8.27148 101.629 8.64258C102.365 9.00716 102.944 9.53451 103.367 10.2246C103.797 10.9147 104.061 11.748 104.158 12.7246H102.957C102.866 11.9564 102.664 11.3053 102.352 10.7715C102.039 10.2376 101.606 9.83073 101.053 9.55078C100.506 9.26432 99.8255 9.12109 99.0117 9.12109C98.3477 9.12109 97.7552 9.24805 97.2344 9.50195C96.7135 9.75586 96.2708 10.1204 95.9062 10.5957C95.5417 11.0645 95.2617 11.6276 95.0664 12.2852C94.8776 12.9427 94.7832 13.6751 94.7832 14.4824V16.2793C94.7832 17.0605 94.8743 17.7799 95.0566 18.4375C95.2389 19.0951 95.5059 19.6647 95.8574 20.1465C96.2155 20.6283 96.6517 21.0026 97.166 21.2695C97.6803 21.5365 98.2663 21.6699 98.9238 21.6699C99.7637 21.6699 100.464 21.5365 101.023 21.2695C101.59 20.9961 102.029 20.5924 102.342 20.0586C102.654 19.5247 102.859 18.8607 102.957 18.0664ZM109.113 7.5V22.5H107.951V7.5H109.113ZM114.605 11.9336V22.5H113.443V11.9336H114.605ZM113.238 8.87695C113.238 8.6556 113.307 8.47005 113.443 8.32031C113.587 8.16406 113.782 8.08594 114.029 8.08594C114.277 8.08594 114.472 8.16406 114.615 8.32031C114.765 8.47005 114.84 8.6556 114.84 8.87695C114.84 9.0918 114.765 9.27734 114.615 9.43359C114.472 9.58333 114.277 9.6582 114.029 9.6582C113.782 9.6582 113.587 9.58333 113.443 9.43359C113.307 9.27734 113.238 9.0918 113.238 8.87695ZM122.695 21.6895C123.19 21.6895 123.652 21.5983 124.082 21.416C124.518 21.2272 124.876 20.9505 125.156 20.5859C125.443 20.2148 125.605 19.7624 125.645 19.2285H126.758C126.725 19.8991 126.52 20.498 126.143 21.0254C125.771 21.5462 125.283 21.9564 124.678 22.2559C124.079 22.5488 123.418 22.6953 122.695 22.6953C121.96 22.6953 121.309 22.5618 120.742 22.2949C120.182 22.028 119.714 21.6569 119.336 21.1816C118.958 20.6999 118.672 20.14 118.477 19.502C118.288 18.8574 118.193 18.1641 118.193 17.4219V17.0117C118.193 16.2695 118.288 15.5794 118.477 14.9414C118.672 14.2969 118.958 13.737 119.336 13.2617C119.714 12.7799 120.182 12.4056 120.742 12.1387C121.302 11.8717 121.95 11.7383 122.686 11.7383C123.441 11.7383 124.118 11.8913 124.717 12.1973C125.322 12.5033 125.804 12.9362 126.162 13.4961C126.527 14.056 126.725 14.7201 126.758 15.4883H125.645C125.612 14.9219 125.462 14.4336 125.195 14.0234C124.928 13.6133 124.577 13.2975 124.141 13.0762C123.704 12.8548 123.219 12.7441 122.686 12.7441C122.087 12.7441 121.576 12.8613 121.152 13.0957C120.729 13.3236 120.384 13.6393 120.117 14.043C119.857 14.4401 119.665 14.8958 119.541 15.4102C119.417 15.918 119.355 16.4518 119.355 17.0117V17.4219C119.355 17.9883 119.414 18.5286 119.531 19.043C119.655 19.5508 119.847 20.0033 120.107 20.4004C120.374 20.7975 120.719 21.1133 121.143 21.3477C121.572 21.5755 122.09 21.6895 122.695 21.6895ZM131.273 7.5V22.5H130.111V7.5H131.273ZM137.904 11.9336L132.963 16.8359L130.863 18.8672L130.688 17.7246L132.377 15.8984L136.43 11.9336H137.904ZM136.889 22.5L132.475 17.0117L133.119 16.0059L138.295 22.5H136.889Z" fill="#808080"/>
</svg>
