<svg width="32" height="32" viewBox="0 0 32 32" fill="none" xmlns="http://www.w3.org/2000/svg">
    <path d="M10.9962 1.61067C10.5122 2.97044 9.99216 5.32604 9.93216 9.23737C9.92816 9.54932 10.2842 9.75328 10.5522 9.58531C12.7361 8.22954 20.0961 3.8183 24.272 3.25039C24.536 3.2144 24.596 2.88246 24.364 2.75448C22.888 1.95061 19.1841 0.282899 13.4761 0.00294711C12.3681 -0.049044 11.3561 0.590847 10.9962 1.60667V1.61067Z"
          fill="#4fa9ff"/>
    <path d="M0.659995 13.0407C1.63199 14.1245 3.47597 15.7363 6.93594 17.7359C7.21194 17.8959 7.57193 17.6959 7.55593 17.388C7.43594 14.8724 7.16794 6.47384 8.74392 2.67448C8.84392 2.43852 8.57993 2.21856 8.35193 2.34654C6.89994 3.1864 3.55597 5.47401 0.463998 10.1492C-0.135997 11.0531 -0.0679981 12.2289 0.659995 13.0407Z"
          fill="#4fa9ff"/>
    <path d="M5.71209 27.4423C7.16408 27.1623 9.52006 26.4144 13.024 24.4988C13.304 24.3468 13.308 23.9429 13.024 23.8029C10.72 22.6511 3.09212 18.6918 0.484139 15.4723C0.320141 15.2683 -0.00785622 15.3883 0.000143711 15.6443C0.0281435 17.292 0.40814 21.2473 3.03612 26.1825C3.54411 27.1343 4.6281 27.6542 5.71209 27.4463V27.4423Z"
          fill="#4fa9ff"/>
    <path d="M21.0601 30.3818C21.5361 29.022 22.0481 26.6624 22.0881 22.7471C22.0881 22.4351 21.7361 22.2312 21.4641 22.4031C19.2881 23.7669 11.9482 28.2141 7.77222 28.798C7.50822 28.834 7.45222 29.17 7.68422 29.294C9.1682 30.0938 12.8802 31.7455 18.5841 31.9975C19.6921 32.0455 20.7001 31.4016 21.0561 30.3818H21.0601Z"
          fill="#0074cc"/>
    <path d="M31.3438 18.9077C30.3678 17.8279 28.5158 16.2241 25.0479 14.2365C24.7719 14.0765 24.4119 14.2765 24.4279 14.5884C24.5599 17.1 24.8679 25.4985 23.3079 29.3059C23.2119 29.5459 23.4759 29.7618 23.6999 29.6298C25.1479 28.782 28.4798 26.4824 31.5558 21.7952C32.1518 20.8873 32.0758 19.7155 31.3478 18.9037L31.3438 18.9077Z"
          fill="#0074cc"/>
    <path d="M26.0078 4.34217C24.5638 4.65412 22.2239 5.45398 18.7639 7.44964C18.4879 7.60961 18.4959 8.00954 18.7839 8.14552C21.1159 9.24533 28.8358 13.0327 31.5158 16.1961C31.6838 16.3921 32.0078 16.2761 31.9998 16.0202C31.9358 14.3765 31.4638 10.4291 28.7158 5.54596C28.1838 4.60612 27.0878 4.11021 26.0118 4.34217H26.0078Z"
          fill="#0074cc"/>
    <path d="M16 21.3992C13.0241 21.3992 10.6001 18.9756 10.6001 16.0002C10.6001 13.0247 13.0241 10.6011 16 10.6011C18.976 10.6011 21.4 13.0247 21.4 16.0002C21.4 18.9756 18.976 21.3992 16 21.3992Z"
          fill="#808080"/>
</svg>
